HIERARCHY
ROOT Hips
{
 OFFSET 0.000000 0.000000 0.000000
 CHANNELS 6 Xposition Yposition Zposition Yrotation Xrotation Zrotation
 JOINT Chest
 {
  OFFSET 0.000000 9.585900 0.002600
  CHANNELS 3 Yrotation Xrotation Zrotation
  JOINT Chest2
  {
   OFFSET 0.000000 9.601200 -0.005300
   CHANNELS 3 Yrotation Xrotation Zrotation
   JOINT Chest3
   {
    OFFSET 0.000000 9.561800 0.000000
    CHANNELS 3 Yrotation Xrotation Zrotation
    JOINT Chest4
    {
     OFFSET 0.000000 9.552100 0.000000
     CHANNELS 3 Yrotation Xrotation Zrotation
     JOINT Neck
     {
      OFFSET 0.000000 14.453000 0.000000
      CHANNELS 3 Yrotation Xrotation Zrotation
      JOINT Head
      {
       OFFSET 0.000000 8.936500 -0.011300
       CHANNELS 3 Yrotation Xrotation Zrotation
       End Site
       {
        OFFSET 0.000000 17.073600 -0.006000
       }
      }
     }
     JOINT RightCollar
     {
      OFFSET -2.921100 9.558500 0.000000
      CHANNELS 3 Yrotation Xrotation Zrotation
      JOINT RightShoulder
      {
       OFFSET -13.519700 0.000000 0.000000
       CHANNELS 3 Yrotation Xrotation Zrotation
       JOINT RightElbow
       {
        OFFSET 0.000000 -29.696600 0.000000
        CHANNELS 3 Yrotation Xrotation Zrotation
        JOINT RightWrist
        {
         OFFSET 0.000000 -24.004700 0.000000
         CHANNELS 3 Yrotation Xrotation Zrotation
         End Site
         {
          OFFSET 0.000000 -17.728500 0.000000
         }
        }
       }
      }
     }
     JOINT LeftCollar
     {
      OFFSET 2.921100 9.558500 0.000000
      CHANNELS 3 Yrotation Xrotation Zrotation
      JOINT LeftShoulder
      {
       OFFSET 13.519700 0.000000 0.000000
       CHANNELS 3 Yrotation Xrotation Zrotation
       JOINT LeftElbow
       {
        OFFSET 0.000000 -29.696600 0.000000
        CHANNELS 3 Yrotation Xrotation Zrotation
        JOINT LeftWrist
        {
         OFFSET 0.000000 -24.004700 0.000000
         CHANNELS 3 Yrotation Xrotation Zrotation
         End Site
         {
          OFFSET 0.000000 -17.728500 0.000000
         }
        }
       }
      }
     }
    }
   }
  }
 }
 JOINT RightHip
 {
  OFFSET -7.771700 -0.012900 -0.001300
  CHANNELS 3 Yrotation Xrotation Zrotation
  JOINT RightKnee
  {
   OFFSET 0.000000 -40.869800 0.001200
   CHANNELS 3 Yrotation Xrotation Zrotation
   JOINT RightAnkle
   {
    OFFSET 0.000000 -39.717900 0.002100
    CHANNELS 3 Yrotation Xrotation Zrotation
    JOINT RightToe
    {
     OFFSET 0.000000 -4.965400 11.033500
     CHANNELS 3 Yrotation Xrotation Zrotation
     End Site
     {
      OFFSET 0.000000 -1.423100 5.872300
     }
    }
   }
  }
 }
 JOINT LeftHip
 {
  OFFSET 7.771700 -0.012900 -0.001300
  CHANNELS 3 Yrotation Xrotation Zrotation
  JOINT LeftKnee
  {
   OFFSET 0.000000 -40.869800 0.001200
   CHANNELS 3 Yrotation Xrotation Zrotation
   JOINT LeftAnkle
   {
    OFFSET 0.000000 -39.717900 0.002100
    CHANNELS 3 Yrotation Xrotation Zrotation
    JOINT LeftToe
    {
     OFFSET 0.000000 -4.965400 11.033500
     CHANNELS 3 Yrotation Xrotation Zrotation
     End Site
     {
      OFFSET 0.000000 -1.423100 5.872300
     }
    }
   }
  }
 }
}
MOTION
Frames: 9
Frame Time: 0.008333
-6.305987 54.353796 29.153976 169.184586 -38.706797 -4.033424 3.902995 20.529497 2.829362 0.424836 2.695748 0.256465 0.722095 4.420685 0.472272 3.176533 17.618646 2.302493 2.043934 15.724446 0.291343 3.721503 -6.561887 -0.237706 -2.971940 1.322829 -1.138022 -4.714730 -1.402983 3.414137 171.994200 -84.325531 -159.169078 1.416181 1.067386 2.489939 -2.583722 1.220147 -0.104809 10.256076 -0.270759 1.383692 151.986393 -80.772181 -159.292382 -4.894824 -4.899916 5.449225 -4.000204 -44.721211 7.878934 -96.294251 85.633715 -92.286027 -0.419859 -0.291052 1.027965 0.010953 1.735563 0.415398 -1.347296 -38.449652 8.665944 72.000709 83.656480 62.620842 -4.171979 -12.120239 9.511292 0.038522 -0.064065 0.144694
-6.265260 54.337186 29.164949 169.226428 -38.680228 -4.051580 3.879398 20.515565 2.847201 0.425996 2.697859 0.284805 0.702329 4.407132 0.450769 3.155231 17.614658 2.289264 2.081163 15.751593 0.285009 3.896678 -6.426416 -0.270373 -2.990305 1.336715 -1.106983 -4.705350 -1.395550 3.379506 171.858823 -84.312000 -159.007381 1.557185 1.664091 2.406524 -2.576572 1.210704 -0.119043 10.255402 -0.264116 1.387450 152.733203 -80.742230 -160.056206 -4.915272 -5.136072 5.708540 -4.054301 -44.661154 7.907195 -96.379656 85.595965 -92.320405 -0.401034 -0.648172 0.804510 0.014618 1.559562 0.452123 -1.454741 -38.498807 8.737397 72.584676 83.610976 63.177172 -4.214884 -12.120905 9.435814 0.038586 -0.054618 0.147648
-6.225044 54.320485 29.175137 169.277607 -38.659747 -4.070996 3.849698 20.504615 2.857703 0.420467 2.694305 0.286722 0.690284 4.403927 0.455269 3.120873 17.605674 2.294967 2.178168 15.831868 0.288778 4.024330 -6.307137 -0.311093 -2.982837 1.349623 -1.120694 -4.737172 -1.378773 3.389615 171.251298 -84.291029 -158.358097 1.696252 2.343358 2.392289 -2.558128 1.205727 -0.152691 10.247940 -0.294609 1.409713 153.270505 -80.738268 -160.597898 -4.944425 -5.360852 5.953607 -4.076746 -44.634238 7.940337 -96.857610 85.547405 -92.748688 -0.405453 -0.953393 0.633233 0.022647 1.381555 0.463341 -1.561089 -38.544481 8.790140 73.131737 83.568275 63.705342 -4.238882 -12.119414 9.366709 0.032267 -0.047525 0.140373
-6.183158 54.304555 29.184376 169.345544 -38.650687 -4.116989 3.817286 20.498295 2.883263 0.410387 2.694544 0.285287 0.688455 4.397282 0.482077 3.076076 17.602542 2.289738 2.276008 15.920591 0.291989 4.143794 -6.180372 -0.344701 -2.977601 1.362098 -1.137400 -4.749986 -1.381199 3.388377 170.593268 -84.275916 -157.704272 1.826717 3.096520 2.496884 -2.549764 1.183952 -0.183381 10.231657 -0.314289 1.422659 153.757215 -80.746643 -161.069900 -4.983332 -5.563748 6.179552 -4.048159 -44.616111 8.002947 -97.492073 85.460235 -93.315284 -0.450690 -1.248411 0.515738 0.061480 1.232952 0.464728 -1.680925 -38.582406 8.847771 73.632198 83.532354 64.201353 -4.244126 -12.113673 9.306722 0.016763 -0.043737 0.122115
-6.145046 54.285138 29.196502 169.359991 -38.618900 -4.124665 3.826877 20.459806 2.901522 0.389851 2.700980 0.275997 0.698096 4.386737 0.497455 3.044113 17.603600 2.306346 2.349444 15.991154 0.289916 4.270586 -6.040953 -0.364132 -3.031038 1.374937 -1.096575 -4.714166 -1.397486 3.343833 169.861062 -84.273072 -156.984901 1.965411 3.883742 2.719694 -2.590083 1.146595 -0.180668 10.240646 -0.316232 1.397990 154.224879 -80.763178 -161.506326 -5.031259 -5.729791 6.371639 -3.966822 -44.639920 8.025230 -98.026436 85.392102 -93.774910 -0.429325 -1.505571 0.438032 0.062799 1.102277 0.433108 -1.747281 -38.647629 8.882104 74.089411 83.490188 64.666298 -4.245117 -12.100944 9.256356 -0.006454 -0.045116 0.100363
-6.117170 54.268728 29.200860 169.425756 -38.626558 -4.114507 3.770714 20.469211 2.859181 0.397660 2.694829 0.284950 0.697334 4.381051 0.506753 3.008557 17.604398 2.316895 2.418062 16.061513 0.292683 4.387494 -5.910627 -0.376147 -3.073397 1.394038 -1.089491 -4.680351 -1.409618 3.321707 169.374586 -84.307741 -156.621626 2.131946 4.650874 3.140455 -2.600214 1.151106 -0.197352 10.152659 -0.410517 1.369795 154.669752 -80.837671 -161.857335 -5.086495 -5.836510 6.521847 -3.874230 -44.615845 7.945719 -99.330345 85.407815 -95.009474 -0.421805 -1.870905 0.393729 0.039960 1.036421 0.381657 -1.797535 -38.671721 8.835062 74.492062 83.443674 65.085608 -4.247881 -12.079011 9.206824 -0.035352 -0.056100 0.093097
-6.093344 54.252322 29.203150 169.521556 -38.642615 -4.118811 3.690737 20.488817 2.813264 0.435080 2.675915 0.312018 0.665900 4.390209 0.495619 2.977185 17.605894 2.330416 2.482734 16.120295 0.298545 4.490615 -5.792996 -0.381060 -3.091167 1.408854 -1.109488 -4.675723 -1.418103 3.333191 169.239282 -84.359470 -156.582251 2.323623 5.390484 3.614220 -2.602817 1.160854 -0.224503 10.071237 -0.479823 1.340415 155.100688 -80.892383 -162.210037 -5.164869 -5.870176 6.627061 -3.800218 -44.564932 7.845986 -100.730495 85.447263 -96.344242 -0.404714 -2.295244 0.365336 0.013211 1.017111 0.326622 -1.865329 -38.685016 8.778093 74.887025 83.393258 65.496626 -4.253599 -12.062716 9.159495 -0.040371 -0.055581 0.071878
-6.070821 54.233324 29.207686 169.614495 -38.640846 -4.138779 3.672694 20.470755 2.830034 0.390302 2.687541 0.293833 0.668303 4.384981 0.504524 2.949742 17.601865 2.342357 2.536312 16.174442 0.307554 4.578812 -5.691031 -0.380044 -3.114485 1.430758 -1.130748 -4.685539 -1.431541 3.388022 168.937462 -84.419116 -156.341197 2.516435 6.054133 4.107486 -2.632668 1.178905 -0.225513 10.020905 -0.524169 1.284412 155.317620 -80.941560 -162.355918 -5.275879 -5.834564 6.667513 -3.751682 -44.505813 7.759184 -101.880309 85.488465 -97.426778 -0.357390 -2.771725 0.327620 -0.011884 1.043375 0.278914 -1.961137 -38.726496 8.750573 75.410700 83.340175 66.027600 -4.269404 -12.036203 9.118014 -0.032504 -0.062776 0.044262
-6.053278 54.215564 29.208895 169.694210 -38.657016 -4.139342 3.634221 20.489118 2.814686 0.358904 2.688150 0.277627 0.689271 4.376482 0.524221 2.924062 17.594573 2.355304 2.577363 16.219535 0.315072 4.653169 -5.607886 -0.374216 -3.142826 1.455991 -1.148454 -4.765533 -1.448336 3.493287 168.285475 -84.480866 -155.671759 2.701136 6.600964 4.594602 -2.669635 1.205942 -0.221127 9.974560 -0.567611 1.218850 156.105211 -80.924372 -163.085013 -5.310015 -5.632560 6.632323 -3.683308 -44.396802 7.631178 -102.941593 85.555397 -98.413399 -0.297756 -3.336018 0.264242 -0.036710 1.121352 0.248162 -2.000855 -38.728875 8.694536 75.658529 83.292008 66.298160 -4.309692 -12.038430 9.083021 -0.025909 -0.044102 0.038286
